<svg xmlns="http://www.w3.org/2000/svg" viewBox="0 0 125 125"><defs><style>.cls-1{fill:#4d220e;}.cls-2{fill:#c96;}</style></defs><g id="Слой_2" data-name="Слой 2"><g id="Слой_1-2" data-name="Слой 1"><path class="cls-1" d="M113.73,0H11.27A11.27,11.27,0,0,0,0,11.27V113.73A11.28,11.28,0,0,0,11.27,125H113.73A11.28,11.28,0,0,0,125,113.73V11.27A11.27,11.27,0,0,0,113.73,0Zm9,113.78a8.91,8.91,0,0,1-8.91,8.91H11.23a8.91,8.91,0,0,1-8.91-8.91V11.22a8.91,8.91,0,0,1,8.91-8.91H113.77a8.91,8.91,0,0,1,8.91,8.91Z"/><rect class="cls-2" x="2.32" y="2.31" width="120.37" height="120.38" rx="8.91"/></g></g></svg>